<svg width="150" height="148" viewBox="0 0 150 148" fill="none" xmlns="http://www.w3.org/2000/svg">
<g clip-path="url(#clip0_338_3486)">
<path d="M91.9727 138.145L90.6058 138.44C90.4668 137.939 90.1958 137.484 89.821 137.124C89.443 136.759 88.9738 136.502 88.4625 136.381C87.8715 136.242 87.2563 136.242 86.6653 136.381C86.1721 136.471 85.7035 136.663 85.2899 136.947C84.9659 137.162 84.7164 137.472 84.5759 137.835C84.4354 138.197 84.4107 138.594 84.5052 138.972C84.5731 139.333 84.7567 139.661 85.0283 139.908C85.3245 140.139 85.6718 140.295 86.0409 140.364C86.5223 140.468 87.0098 140.542 87.5006 140.583C88.0238 140.634 88.5638 140.701 89.1123 140.794C89.6487 140.884 90.1746 141.028 90.6817 141.225C91.162 141.416 91.5983 141.703 91.9643 142.068C92.3353 142.458 92.5845 142.948 92.6815 143.478C92.8051 144.04 92.764 144.626 92.5633 145.165C92.3446 145.763 91.9615 146.286 91.458 146.675C90.8531 147.148 90.1445 147.469 89.3907 147.612C88.8546 147.772 88.2903 147.816 87.7358 147.741C87.1813 147.665 86.6495 147.471 86.1759 147.173C85.3242 146.529 84.7628 145.573 84.6149 144.515L85.9734 144.22C86.0297 144.584 86.1646 144.93 86.3686 145.236C86.5726 145.542 86.8409 145.8 87.1547 145.992C87.7824 146.286 88.4935 146.348 89.1629 146.169C89.7627 146.049 90.3142 145.756 90.7492 145.325C90.9547 145.132 91.1028 144.885 91.1772 144.613C91.2517 144.34 91.2496 144.053 91.1711 143.781C91.1218 143.526 91.0118 143.285 90.8505 143.081C90.6706 142.877 90.4451 142.718 90.1923 142.617C89.8326 142.477 89.4593 142.375 89.0785 142.313C88.6144 142.237 88.0575 142.161 87.3909 142.094C86.9606 142.094 86.5472 141.992 86.0493 141.908C85.5954 141.824 85.1534 141.685 84.733 141.495C84.3079 141.3 83.9328 141.012 83.6361 140.651C83.2985 140.223 83.0698 139.719 82.9695 139.183C82.8422 138.601 82.8684 137.996 83.0454 137.428C83.2364 136.825 83.6038 136.293 84.1002 135.9C84.7497 135.399 85.5112 135.063 86.3193 134.922C87.0235 134.752 87.7525 134.712 88.471 134.803C89.0362 134.884 89.5805 135.073 90.0742 135.36C90.4826 135.608 90.8475 135.922 91.1542 136.288C91.4091 136.595 91.6194 136.936 91.7786 137.301C91.9047 137.565 91.9709 137.853 91.9727 138.145V138.145Z" fill="#201B2F"/>
<path d="M72.2954 140.33C72.3179 139.607 72.529 138.903 72.908 138.287C73.2869 137.672 73.8205 137.166 74.4555 136.82C75.082 136.481 75.7772 136.287 76.489 136.255C77.301 136.211 78.1109 136.374 78.8432 136.727C79.6031 137.108 80.2426 137.693 80.6911 138.415C81.2074 139.202 81.4992 140.115 81.5349 141.056C81.6073 141.995 81.4267 142.936 81.0117 143.781C80.6214 144.535 80.0394 145.172 79.3241 145.629C78.6826 146.042 77.9505 146.293 77.1907 146.36C76.431 146.428 75.6661 146.31 74.9618 146.017C74.3007 145.739 73.7213 145.298 73.2784 144.734C72.8355 144.17 72.5436 143.502 72.4304 142.794L73.8395 142.718C74.0604 143.4 74.4954 143.991 75.0799 144.406C75.6232 144.796 76.2858 144.984 76.9531 144.937C77.5053 144.911 78.0395 144.733 78.4972 144.423C78.9848 144.106 79.3736 143.658 79.6195 143.132C79.8785 142.512 79.9941 141.842 79.9576 141.171C79.9211 140.5 79.7334 139.846 79.4085 139.259C79.1121 138.764 78.6822 138.364 78.1682 138.103C77.6724 137.852 77.1197 137.736 76.565 137.765C75.8667 137.772 75.195 138.033 74.6749 138.499C74.1734 138.993 73.8298 139.624 73.6877 140.313L72.2954 140.33Z" fill="#201B2F"/>
<path d="M65.2666 144.397C65.8546 144.463 66.4479 144.332 66.9541 144.026C67.4122 143.744 67.7992 143.36 68.0848 142.904C68.3525 142.493 68.5546 142.043 68.6839 141.571L68.6164 142.693C68.5955 142.89 68.556 143.085 68.4983 143.275C68.4129 143.585 68.2941 143.885 68.1439 144.169C67.9718 144.516 67.7563 144.839 67.5026 145.131C67.2325 145.439 66.8984 145.684 66.5238 145.849C66.0911 146.036 65.6174 146.109 65.1484 146.06L65.2666 144.397ZM69.8061 146.186L68.262 146.076L68.9539 136.398L70.5065 136.508L69.8061 146.186Z" fill="#201B2F"/>
<path d="M60.4573 135.056C61.2677 135.215 62.0213 135.586 62.6411 136.132C63.2608 136.677 63.7244 137.378 63.9843 138.162C64.2807 139.049 64.3303 139.999 64.1278 140.912C63.9683 141.849 63.557 142.724 62.938 143.444C62.3778 144.073 61.662 144.545 60.8623 144.811C60.2773 145.004 59.6599 145.079 59.0456 145.033C58.4313 144.986 57.8324 144.819 57.2832 144.539C56.7341 144.26 56.2457 143.875 55.8463 143.406C55.4468 142.937 55.1441 142.393 54.9558 141.807C54.7009 140.907 54.666 139.959 54.854 139.043C55.0419 138.126 55.4473 137.269 56.0358 136.542C56.5826 135.912 57.2919 135.445 58.0862 135.192C58.8513 134.94 59.6687 134.894 60.4573 135.056V135.056ZM60.162 136.482C59.6342 136.374 59.0871 136.406 58.5756 136.575C58.0316 136.761 57.5498 137.094 57.1834 137.537C56.7488 138.058 56.4579 138.683 56.3396 139.351C56.185 140.014 56.2024 140.705 56.3902 141.36C56.565 141.909 56.8755 142.405 57.2931 142.802C57.6917 143.167 58.1814 143.418 58.7106 143.528C59.2423 143.629 59.7909 143.595 60.3054 143.427C60.8549 143.238 61.3442 142.906 61.723 142.465C62.145 141.931 62.4364 141.306 62.5741 140.639C62.7118 139.973 62.692 139.283 62.5161 138.626C62.3505 138.071 62.0318 137.573 61.5964 137.191C61.1854 136.838 60.6921 136.594 60.162 136.482Z" fill="#201B2F"/>
<path d="M49.834 146.507L48.3574 146.017L52.5764 133.124L54.053 133.605L49.834 146.507Z" fill="#201B2F"/>
<path d="M44.9823 144.777L43.5479 144.195L48.6612 131.631L50.0956 132.213L44.9823 144.777Z" fill="#201B2F"/>
<path d="M29.8025 136.761L28.4946 135.917L35.7849 124.45L36.9831 125.218L36.5106 126.112C36.3306 126.456 36.1787 126.737 36.055 126.956L29.8025 136.761ZM39.987 126.914C40.6274 127.318 41.1305 127.906 41.4299 128.602C41.737 129.334 41.8504 130.133 41.759 130.922C41.6566 131.827 41.3414 132.694 40.8392 133.453C40.3688 134.218 39.7348 134.869 38.9829 135.36C38.3158 135.79 37.5478 136.037 36.7553 136.078C35.985 136.092 35.2294 135.865 34.5952 135.428C34.0517 135.13 33.5974 134.694 33.2789 134.162C33.0372 133.703 32.9318 133.185 32.9751 132.669C33.0279 132.103 33.1733 131.55 33.4055 131.032C33.6722 130.445 33.9854 129.881 34.3421 129.344C34.6325 128.893 34.9629 128.47 35.3293 128.078C35.7217 127.651 36.1702 127.28 36.6625 126.973C37.1385 126.668 37.6847 126.491 38.2488 126.458C38.8621 126.42 39.4716 126.579 39.987 126.914V126.914ZM38.8648 127.943C38.3711 127.602 37.776 127.438 37.1772 127.479C36.6307 127.517 36.1078 127.717 35.6753 128.053C35.1913 128.415 34.7792 128.864 34.4602 129.378C34.1084 129.912 33.8594 130.507 33.7261 131.133C33.6144 131.664 33.6643 132.217 33.8696 132.719C34.1043 133.244 34.4965 133.684 34.9918 133.976C35.343 134.224 35.748 134.385 36.1735 134.445C36.599 134.505 37.0327 134.463 37.4388 134.322C38.3018 133.992 39.0255 133.375 39.4892 132.576C39.8344 132.047 40.0564 131.447 40.1389 130.821C40.212 130.246 40.1274 129.663 39.8942 129.133C39.6734 128.645 39.3158 128.232 38.8648 127.943V127.943Z" fill="#201B2F"/>
<path d="M30.9584 120.13C31.5797 120.677 32.044 121.38 32.3036 122.166C32.5631 122.952 32.6085 123.793 32.435 124.602C32.2028 125.509 31.7535 126.347 31.1259 127.042C30.4982 127.737 29.711 128.27 28.832 128.593C28.0307 128.853 27.1749 128.897 26.3513 128.72C25.5523 128.55 24.8126 128.172 24.2081 127.623C23.5988 127.084 23.1469 126.39 22.9002 125.615C22.6451 124.815 22.6043 123.962 22.7821 123.142C23.0183 122.237 23.4689 121.401 24.096 120.707C24.7232 120.012 25.5083 119.478 26.3851 119.151C27.1653 118.891 28.001 118.845 28.8052 119.017C29.6094 119.189 30.3528 119.573 30.9584 120.13ZM29.988 121.21C29.5894 120.85 29.1037 120.599 28.5789 120.484C28.0161 120.369 27.4325 120.41 26.8913 120.602C26.2538 120.834 25.687 121.226 25.2459 121.742C24.7817 122.236 24.4507 122.84 24.284 123.497C24.1385 124.05 24.1385 124.631 24.284 125.184C24.4412 125.698 24.7325 126.161 25.1278 126.526C25.5316 126.888 26.0233 127.138 26.5538 127.252C27.1163 127.363 27.6981 127.325 28.2414 127.142C28.8968 126.914 29.4794 126.514 29.929 125.986C30.3991 125.496 30.731 124.891 30.8909 124.231C31.0261 123.672 30.9998 123.087 30.8149 122.543C30.659 122.035 30.3741 121.576 29.988 121.21V121.21Z" fill="#201B2F"/>
<path d="M19.694 109.794L19.9134 110.114L11.7202 112.992L10.6992 111.641L20.4618 108.46L21.3056 109.616L16.032 116.73L15.7957 116.426L24.0732 113.27L24.917 114.426L19.2046 122.948L18.1836 121.607L23.1873 114.527L23.4404 114.823L15.4835 118.046L14.3528 116.544L19.694 109.794Z" fill="#201B2F"/>
<path d="M7.07901 104.689C6.86316 104.264 6.72595 103.804 6.67399 103.33C6.63069 102.913 6.68263 102.492 6.82587 102.098C6.97465 101.698 7.20447 101.333 7.5009 101.027C7.84296 100.679 8.24264 100.394 8.6822 100.183L14.5043 97.3392L15.1878 98.723L9.71162 101.398C9.14614 101.628 8.69021 102.066 8.43751 102.621C8.34447 102.899 8.31289 103.194 8.34494 103.486C8.37699 103.777 8.47191 104.058 8.62314 104.309C8.84608 104.779 9.19702 105.177 9.63568 105.456C10.0838 105.747 10.597 105.921 11.1292 105.963C11.7023 106.013 12.2794 105.932 12.8168 105.726L11.8127 106.233C11.3306 106.409 10.8238 106.509 10.3107 106.528C9.85354 106.541 9.39738 106.478 8.96065 106.342C8.55122 106.215 8.17216 106.006 7.84685 105.726C7.52651 105.433 7.26579 105.081 7.07901 104.689V104.689ZM9.40786 108.992L8.72439 107.6L17.4407 103.33L18.1157 104.731L9.40786 108.992Z" fill="#201B2F"/>
<path d="M118.822 23.4657L119.818 24.4698C119.461 24.8519 119.213 25.3228 119.1 25.8334C118.987 26.344 119.013 26.8755 119.176 27.3724C119.371 27.947 119.694 28.4694 120.121 28.8997C120.46 29.2627 120.871 29.5502 121.328 29.7435C121.68 29.9071 122.075 29.9576 122.457 29.8881C122.839 29.8186 123.191 29.6325 123.463 29.3553C123.737 29.1096 123.924 28.7806 123.994 28.4187C124.03 28.047 123.981 27.672 123.851 27.3218C123.689 26.8582 123.501 26.4046 123.286 25.9633C123.049 25.4908 122.821 24.993 122.619 24.4783C122.411 23.973 122.258 23.4468 122.163 22.9088C122.057 22.4053 122.057 21.8851 122.163 21.3816C122.308 20.8619 122.601 20.3956 123.007 20.0399C123.426 19.6364 123.954 19.3637 124.526 19.2552C125.147 19.1307 125.79 19.1834 126.382 19.4071C127.105 19.689 127.749 20.1438 128.255 20.7318C128.671 21.1041 129.002 21.561 129.226 22.0719C129.45 22.5828 129.562 23.1357 129.555 23.6935C129.505 24.2211 129.351 24.7335 129.102 25.2013C128.853 25.669 128.513 26.0829 128.104 26.419L127.142 25.4064C127.424 25.1718 127.65 24.8776 127.805 24.5449C127.96 24.2123 128.039 23.8494 128.036 23.4826C127.971 22.8016 127.673 22.164 127.192 21.6769C126.784 21.2241 126.254 20.8988 125.665 20.7403C125.392 20.6695 125.104 20.6745 124.834 20.7548C124.563 20.835 124.32 20.9876 124.129 21.1959C123.934 21.3667 123.786 21.5845 123.699 21.8288C123.621 22.0885 123.603 22.3628 123.648 22.6304C123.714 23.0123 123.821 23.3858 123.969 23.7442C124.146 24.1745 124.374 24.6976 124.661 25.2967C124.855 25.6849 125.032 26.0983 125.201 26.5371C125.367 26.9692 125.48 27.4196 125.538 27.8787C125.599 28.3359 125.552 28.8008 125.403 29.2372C125.216 29.7531 124.903 30.2142 124.492 30.5788C124.063 30.9854 123.537 31.2758 122.965 31.4226C122.349 31.5744 121.702 31.5361 121.109 31.3129C120.342 31.0198 119.659 30.5449 119.117 29.9291C118.604 29.4184 118.19 28.8178 117.894 28.1572C117.658 27.6257 117.534 27.0511 117.531 26.4696C117.524 25.5897 117.789 24.7291 118.29 24.0057C118.433 23.7948 118.613 23.6117 118.822 23.4657V23.4657Z" fill="#201B2F"/>
<path d="M130.93 39.0758C130.279 39.4416 129.542 39.628 128.795 39.6158C128.099 39.603 127.417 39.4144 126.812 39.0674C126.154 38.6822 125.595 38.1465 125.183 37.5042C124.771 36.8618 124.517 36.131 124.441 35.3716C124.354 34.5254 124.506 33.6718 124.88 32.9077C125.315 32.0775 125.946 31.3657 126.718 30.8336C127.49 30.3014 128.379 29.965 129.31 29.8532C130.148 29.7886 130.988 29.9427 131.749 30.3004C132.438 30.6302 133.036 31.1229 133.492 31.736C133.948 32.3491 134.247 33.0641 134.364 33.819C134.474 34.5287 134.4 35.2546 134.151 35.9279C133.901 36.6012 133.484 37.1997 132.938 37.6667L132.137 36.5023C132.596 35.9582 132.868 35.2807 132.913 34.57C132.954 33.9045 132.77 33.2445 132.39 32.6968C132.073 32.2419 131.642 31.8782 131.141 31.6421C130.616 31.3938 130.03 31.3001 129.453 31.3721C128.782 31.4545 128.143 31.7072 127.597 32.1061C127.034 32.4724 126.574 32.9782 126.264 33.5743C125.99 34.0923 125.87 34.6779 125.918 35.2619C125.968 35.816 126.159 36.3478 126.475 36.806C126.848 37.3961 127.419 37.8332 128.087 38.038C128.769 38.2057 129.485 38.1676 130.145 37.9283L130.93 39.0758Z" fill="#201B2F"/>
<path d="M137.225 38.1476L137.933 39.523L129.302 43.9697L128.593 42.5859L137.225 38.1476ZM138.069 42.9487C137.815 42.4137 137.394 41.9755 136.87 41.6999C136.388 41.4587 135.857 41.329 135.318 41.3202C134.83 41.3088 134.344 41.3714 133.875 41.5059L134.871 40.9743C135.048 40.8951 135.231 40.8302 135.419 40.7802C135.73 40.6907 136.05 40.6342 136.372 40.6114C136.753 40.5852 137.136 40.6051 137.512 40.6705C137.946 40.7459 138.357 40.9237 138.709 41.1893C139.061 41.4549 139.345 41.8006 139.537 42.1978L138.069 42.9487Z" fill="#201B2F"/>
<path d="M132.584 51.9435C132.306 51.177 132.23 50.3515 132.365 49.5472C132.502 48.7177 132.864 47.9416 133.411 47.3027C134.042 46.6097 134.834 46.082 135.717 45.7658C136.599 45.4495 137.546 45.3543 138.474 45.4886C139.302 45.6344 140.077 45.9985 140.718 46.5433C141.341 47.0713 141.815 47.7536 142.092 48.5221C142.369 49.2906 142.439 50.1184 142.296 50.9225C142.138 51.7497 141.766 52.5209 141.216 53.1586C140.598 53.8637 139.803 54.391 138.912 54.6858C138.038 55.0285 137.088 55.1277 136.162 54.9727C135.338 54.8316 134.568 54.47 133.934 53.9264C133.323 53.3908 132.858 52.7084 132.584 51.9435V51.9435ZM133.959 51.4457C134.136 51.9554 134.448 52.4074 134.862 52.7536C135.3 53.1217 135.832 53.3612 136.398 53.4455C137.07 53.5484 137.758 53.4698 138.389 53.2176C139.036 53.0049 139.617 52.6302 140.077 52.1292C140.462 51.7006 140.725 51.1758 140.836 50.6103C140.945 50.0814 140.907 49.533 140.727 49.024C140.543 48.5109 140.226 48.0563 139.807 47.7077C139.363 47.3359 138.826 47.091 138.254 46.9989C137.576 46.8962 136.884 46.9748 136.246 47.2268C135.6 47.4405 135.02 47.8151 134.558 48.3152C134.177 48.7495 133.923 49.2811 133.824 49.8509C133.724 50.3934 133.771 50.9526 133.959 51.471V51.4457Z" fill="#201B2F"/>
<path d="M147.882 55.0318L148.236 56.5422L135.006 59.622L134.651 58.1032L147.882 55.0318Z" fill="#201B2F"/>
<path d="M148.937 60.0776L149.181 61.5965L135.774 63.7903L135.529 62.2546L148.937 60.0776Z" fill="#201B2F"/>
<path d="M136.28 73.6373C136.29 72.8788 136.529 72.141 136.963 71.5194C137.429 70.876 138.055 70.3643 138.777 70.0343C139.592 69.663 140.482 69.4867 141.376 69.5196C142.273 69.5172 143.159 69.7192 143.967 70.1103C144.686 70.4478 145.3 70.9724 145.747 71.6291C146.179 72.2741 146.397 73.0386 146.371 73.8145C146.382 74.4322 146.234 75.0423 145.941 75.5865C145.68 76.0342 145.292 76.3952 144.827 76.6243C144.316 76.8709 143.769 77.0361 143.207 77.1137C142.556 77.1991 141.898 77.2358 141.241 77.2234C140.705 77.211 140.171 77.1489 139.646 77.0378C139.076 76.9308 138.524 76.7403 138.01 76.4724C137.502 76.2301 137.066 75.861 136.744 75.4008C136.406 74.8769 136.244 74.2594 136.28 73.6373V73.6373ZM150 77.1728V78.7253L136.389 78.4722V77.0546L137.402 76.9871C137.79 76.9871 138.102 76.945 138.33 76.9871L150 77.1728ZM137.748 74.0508C137.718 74.634 137.878 75.2112 138.204 75.6962C138.525 76.1381 138.968 76.4779 139.478 76.6749C140.041 76.9021 140.642 77.0195 141.25 77.0209C141.886 77.042 142.522 76.9448 143.123 76.734C143.649 76.5558 144.104 76.2138 144.421 75.7583C144.738 75.3028 144.901 74.7576 144.886 74.2027C144.917 73.7736 144.844 73.3434 144.674 72.9483C144.504 72.5533 144.241 72.205 143.908 71.9329C143.277 71.4844 142.541 71.2055 141.771 71.1228C141.001 71.04 140.223 71.1563 139.511 71.4603C138.999 71.6976 138.557 72.0639 138.229 72.5235C137.922 72.9743 137.755 73.5055 137.748 74.0508V74.0508Z" fill="#201B2F"/>
<path d="M135.208 84.9018C135.35 84.0856 135.707 83.3221 136.242 82.6901C136.778 82.0582 137.472 81.5808 138.254 81.3073C139.149 81.0304 140.097 80.9756 141.017 81.1476C141.938 81.3196 142.802 81.7133 143.536 82.2945C144.178 82.8403 144.662 83.5484 144.937 84.3449C145.208 85.1132 145.272 85.939 145.124 86.74C144.976 87.541 144.621 88.2891 144.093 88.9098C143.546 89.5478 142.838 90.0283 142.043 90.302C141.153 90.5974 140.201 90.6499 139.284 90.4539C138.352 90.3107 137.477 89.917 136.752 89.3148C136.112 88.7795 135.631 88.0791 135.36 87.2897C135.104 86.5203 135.051 85.6975 135.208 84.9018V84.9018ZM136.634 85.1634C136.534 85.6934 136.575 86.2404 136.752 86.7497C136.95 87.2876 137.288 87.7626 137.731 88.1251C138.274 88.5304 138.902 88.8052 139.568 88.9281C140.234 89.051 140.919 89.0188 141.57 88.8339C142.121 88.6585 142.613 88.3379 142.996 87.9057C143.354 87.5023 143.596 87.0095 143.697 86.4797C143.794 85.9461 143.75 85.3965 143.57 84.8849C143.371 84.3576 143.036 83.892 142.6 83.5349C142.072 83.0914 141.433 82.7997 140.752 82.6911C140.089 82.5463 139.4 82.5753 138.752 82.7755C138.2 82.9557 137.71 83.2859 137.335 83.729C136.984 84.1404 136.743 84.6339 136.634 85.1634Z" fill="#201B2F"/>
<path d="M132.247 99.8875L132.407 99.5331L139.157 105.043L138.541 106.612L130.745 99.9297L131.276 98.5796L140.102 99.4234L139.959 99.7862L132.955 94.3607L133.495 93.0022L143.747 93.4578L143.123 95.0273L134.474 94.4366L134.601 94.0654L141.486 99.1787L140.794 100.934L132.247 99.8875Z" fill="#201B2F"/>
<path d="M134.449 113.312C134.197 113.715 133.874 114.07 133.495 114.358C133.162 114.618 132.771 114.794 132.356 114.873C131.942 114.966 131.513 114.966 131.099 114.873C130.625 114.763 130.174 114.572 129.766 114.308L124.307 110.806L125.15 109.498L130.289 112.789C130.773 113.152 131.376 113.318 131.977 113.253C132.261 113.188 132.528 113.062 132.76 112.884C132.991 112.707 133.182 112.481 133.318 112.224C133.602 111.789 133.76 111.283 133.774 110.764C133.785 110.23 133.67 109.701 133.436 109.22C133.175 108.699 132.8 108.243 132.339 107.887L133.301 108.477C133.699 108.801 134.046 109.182 134.331 109.608C134.579 109.992 134.764 110.414 134.879 110.857C134.978 111.276 134.993 111.71 134.922 112.135C134.851 112.559 134.696 112.965 134.466 113.329L134.449 113.312ZM136.921 109.093L136.077 110.401L127.91 105.17L128.753 103.862L136.921 109.093Z" fill="#201B2F"/>
<path d="M7.30702 58.3479L7.7036 57.0062C8.20838 57.1336 8.73815 57.1224 9.23711 56.9739C9.73606 56.8254 10.1857 56.5451 10.5387 56.1625C10.9406 55.7105 11.2298 55.1698 11.3825 54.5846C11.5435 54.1101 11.6011 53.6066 11.5513 53.1079C11.5148 52.7176 11.3619 52.3472 11.1125 52.0448C10.8589 51.7327 10.5135 51.5083 10.1253 51.4035C9.77939 51.2763 9.39955 51.2763 9.05366 51.4035C8.72791 51.5627 8.44015 51.79 8.20988 52.0701C7.88248 52.44 7.58082 52.8318 7.30702 53.243C7.01451 53.6817 6.69387 54.1205 6.34511 54.5593C6.00722 54.9761 5.6253 55.3552 5.206 55.6899C4.81877 56.0246 4.36409 56.2721 3.87281 56.4156C3.35414 56.557 2.8053 56.5423 2.29493 56.3734C1.73551 56.2203 1.23179 55.9099 0.843617 55.479C0.426004 55.0021 0.151126 54.4173 0.0504576 53.7914C-0.0706943 53.0314 -0.00996902 52.2536 0.227653 51.5216C0.348775 50.9768 0.585474 50.4643 0.921743 50.0189C1.25801 49.5734 1.68601 49.2054 2.1768 48.9396C2.65813 48.7199 3.17849 48.5986 3.70735 48.5826C4.23621 48.5667 4.76293 48.6565 5.25662 48.8468L4.86004 50.18C4.51528 50.0543 4.1473 50.005 3.78159 50.0356C3.41589 50.0662 3.06121 50.1759 2.74214 50.3572C2.18125 50.7703 1.78389 51.3678 1.6199 52.0448C1.42894 52.623 1.40844 53.244 1.56084 53.8336C1.63542 54.1061 1.78219 54.3534 1.98566 54.5495C2.18912 54.7455 2.44173 54.883 2.71682 54.9474C2.9643 55.0285 3.22769 55.0488 3.48467 55.0065C3.75512 54.9331 4.00586 54.8005 4.21876 54.6183C4.5297 54.3684 4.81262 54.0855 5.06255 53.7745C5.34944 53.4117 5.68695 52.9308 6.06666 52.4076C6.32561 52.028 6.60739 51.6645 6.91044 51.3191C7.20167 50.9589 7.53607 50.6358 7.90611 50.3572C8.25056 50.0877 8.647 49.8924 9.07054 49.7834C9.61007 49.6944 10.1631 49.7379 10.6822 49.91C11.2517 50.0778 11.7688 50.3886 12.1841 50.8128C12.6283 51.278 12.9223 51.866 13.0279 52.5004C13.1553 53.3128 13.0829 54.144 12.817 54.9221C12.6248 55.6188 12.3105 56.2759 11.8888 56.8628C11.5478 57.3215 11.1172 57.7062 10.6231 57.9935C10.2085 58.2322 9.75846 58.4031 9.28992 58.4997C8.90109 58.5765 8.50317 58.5964 8.10862 58.5588C7.82927 58.5476 7.55572 58.4756 7.30702 58.3479V58.3479Z" fill="#201B2F"/>
<path d="M14.8422 40.1052C15.4833 40.4914 16.0126 41.0382 16.3779 41.6915C16.7066 42.3067 16.8776 42.9938 16.8757 43.6913C16.8731 44.4024 16.7087 45.1036 16.3947 45.7417C16.0412 46.4764 15.507 47.1093 14.8422 47.5812C14.1555 48.066 13.3512 48.3574 12.5133 48.425C11.5762 48.4818 10.6409 48.2866 9.80477 47.8596C8.94464 47.4751 8.20631 46.8623 7.66999 46.0877C7.18419 45.3952 6.89283 44.5852 6.8262 43.7419C6.76732 42.9153 6.93046 42.088 7.29872 41.3456C7.59587 40.6857 8.04733 40.1069 8.61503 39.658C9.16006 39.2314 9.7996 38.9421 10.4798 38.8142C11.2088 38.6899 11.9574 38.7509 12.6568 38.9914L12.0408 40.2655C11.3423 40.1396 10.6219 40.237 9.98197 40.544C9.38014 40.8376 8.89753 41.3291 8.61503 41.9362C8.37387 42.4312 8.27179 42.9825 8.31971 43.531C8.3628 44.1101 8.56743 44.6655 8.91036 45.1342C9.31237 45.6895 9.85372 46.129 10.4798 46.4083C11.0754 46.7185 11.7409 46.8697 12.4121 46.8471C12.9885 46.8243 13.5469 46.6401 14.0237 46.3155C14.4803 46.0019 14.8468 45.5743 15.0869 45.0751C15.4143 44.4566 15.5101 43.7414 15.3569 43.0585C15.1524 42.4 14.7629 41.8141 14.2347 41.3709L14.8422 40.1052Z" fill="#201B2F"/>
<path d="M10.9102 35.1184L11.7539 33.8106L19.888 39.1095L19.0443 40.409L10.9102 35.1184ZM14.6734 32.0049C14.3302 32.4988 14.1583 33.0915 14.184 33.6924C14.213 34.2308 14.363 34.7557 14.6228 35.2281C14.8403 35.6562 15.1252 36.0465 15.4666 36.3841L14.5131 35.785C14.3501 35.6759 14.2 35.5485 14.0659 35.4053C13.8365 35.1788 13.6302 34.9301 13.45 34.6628C13.2369 34.345 13.064 34.0021 12.9352 33.6418C12.7998 33.2548 12.7452 32.8441 12.7749 32.4352C12.825 31.9662 12.9902 31.517 13.2559 31.1273L14.6734 32.0049Z" fill="#201B2F"/>
<path d="M25.2038 32.2917C24.6743 32.9117 23.9944 33.3853 23.2293 33.667C22.4458 33.9616 21.5962 34.0346 20.7739 33.878C19.8492 33.6989 18.9913 33.2699 18.2932 32.6376C17.5557 32.0488 16.9975 31.2655 16.6815 30.3763C16.3963 29.5845 16.3292 28.7306 16.4875 27.904C16.6355 27.101 16.9927 26.3513 17.5231 25.7306C18.0535 25.1098 18.7382 24.64 19.5082 24.3685C20.2891 24.0992 21.1267 24.0381 21.9383 24.1913C22.8795 24.3711 23.7543 24.8026 24.4697 25.4401C25.1996 26.0292 25.7565 26.8047 26.0813 27.6846C26.3661 28.4677 26.4332 29.3134 26.2754 30.1316C26.1103 30.9319 25.7412 31.676 25.2038 32.2917V32.2917ZM24.0984 31.3466C24.4436 30.9338 24.6787 30.4403 24.7819 29.9122C24.8838 29.3456 24.8284 28.7619 24.6216 28.2246C24.3537 27.6032 23.9465 27.0517 23.4315 26.6128C22.9165 26.1739 22.3075 25.8592 21.6515 25.6933C21.0908 25.5715 20.5077 25.6035 19.9639 25.7861C19.4489 25.9532 18.9903 26.2599 18.6391 26.6721C18.2924 27.0871 18.0571 27.5837 17.9557 28.1149C17.858 28.6817 17.9133 29.2643 18.116 29.8025C18.3581 30.4429 18.7693 31.0056 19.3057 31.431C19.8058 31.9017 20.4239 32.2282 21.0946 32.3761C21.6568 32.4982 22.2423 32.4572 22.7821 32.2579C23.2928 32.0741 23.7466 31.7599 24.0984 31.3466V31.3466Z" fill="#201B2F"/>
<path d="M20.293 17.4664L21.4321 16.4116L30.7137 26.3599L29.5324 27.4146L20.293 17.4664Z" fill="#201B2F"/>
<path d="M24.1323 14.066L25.3136 13.0872L33.9034 23.6261L32.6968 24.6049L24.1323 14.066Z" fill="#201B2F"/>
<path d="M42.1893 18.2764C41.5288 18.6513 40.7677 18.8106 40.0123 18.732C39.2192 18.6498 38.4622 18.3586 37.8184 17.8882C37.0939 17.3632 36.4992 16.6791 36.0802 15.8885C35.6302 15.1156 35.3646 14.2494 35.304 13.3571C35.2423 12.5639 35.3938 11.7686 35.7427 11.0536C36.0873 10.3575 36.6423 9.78774 37.329 9.42506C37.8578 9.10832 38.4595 8.9339 39.0757 8.91878C39.5939 8.92354 40.099 9.08213 40.527 9.37443C41.003 9.69337 41.4223 10.0898 41.7674 10.5473C42.1696 11.0651 42.528 11.6154 42.839 12.1927C43.0939 12.6649 43.3057 13.1591 43.4718 13.6693C43.6551 14.2149 43.7658 14.7823 43.8009 15.3569C43.8317 15.9171 43.7245 16.4763 43.4887 16.9854C43.2093 17.5469 42.7526 18.0006 42.1893 18.2764V18.2764ZM41.818 16.7998C42.3445 16.5379 42.7711 16.1112 43.033 15.5847C43.2555 15.0846 43.3316 14.5316 43.2524 13.9899C43.1638 13.3964 42.9665 12.8243 42.6702 12.3024C42.3723 11.7358 41.9684 11.2317 41.4805 10.8173C41.0788 10.4437 40.5723 10.2023 40.0292 10.1254C39.4544 10.0758 38.8786 10.2086 38.3838 10.5051C37.9979 10.6947 37.6628 10.9734 37.406 11.3182C37.1493 11.6631 36.9783 12.064 36.9071 12.488C36.7626 13.4236 36.9539 14.3801 37.4472 15.1881C37.7439 15.7487 38.1654 16.2337 38.6791 16.6057C39.14 16.9322 39.678 17.1328 40.2401 17.1879C40.7957 17.2195 41.3481 17.0843 41.8264 16.7998H41.818ZM38.4428 4.61547L39.8013 3.8645L46.3491 15.7703L45.1088 16.4538C44.9484 16.2175 44.7544 15.9391 44.5434 15.61C44.3669 15.3542 44.2035 15.0894 44.054 14.8169L38.4428 4.61547Z" fill="#201B2F"/>
<path d="M52.492 13.6356C51.7232 13.9055 50.8978 13.9723 50.0956 13.8297C49.2706 13.6833 48.5007 13.3159 47.868 12.7665C47.1599 12.1457 46.6348 11.3434 46.3492 10.4461C46.0204 9.56539 45.933 8.61278 46.096 7.68693C46.2577 6.85942 46.6329 6.08858 47.1845 5.45089C47.7182 4.83458 48.4044 4.36916 49.1744 4.10115C49.9443 3.83313 50.7712 3.77193 51.5722 3.92364C52.3941 4.08695 53.1591 4.46217 53.7914 5.01212C54.4891 5.64197 55.0074 6.44556 55.2933 7.34098C55.6354 8.22731 55.7259 9.19094 55.5549 10.1255C55.406 10.9463 55.0354 11.7108 54.4833 12.3362C53.9419 12.9329 53.2561 13.3803 52.492 13.6356V13.6356ZM52.011 12.2603C52.5159 12.0987 52.9697 11.8078 53.3273 11.4165C53.6938 10.963 53.9274 10.4168 54.0023 9.83859C54.1074 9.16778 54.0347 8.48115 53.7914 7.84725C53.5859 7.20365 53.22 6.62292 52.7282 6.15967C52.2994 5.77126 51.7754 5.5034 51.2094 5.38339C50.6812 5.27239 50.1328 5.3074 49.6231 5.48464C49.1095 5.66337 48.6525 5.97488 48.2983 6.3875C47.9246 6.82924 47.6742 7.36195 47.5727 7.93163C47.4639 8.61068 47.5367 9.30644 47.7836 9.94828C47.9884 10.5942 48.3577 11.1758 48.8552 11.6359C49.2827 12.0277 49.8121 12.291 50.3825 12.3953C50.9278 12.4924 51.4891 12.4459 52.011 12.2603V12.2603Z" fill="#201B2F"/>
<path d="M66.9883 8.76695H66.6001L68.0599 0.244698L69.7474 0L67.8067 10.1254L66.3639 10.3364L62.6765 2.2276L63.0646 2.17697L61.8158 10.9692L60.373 11.1717L55.6899 2.02509L57.3775 1.78039L61.1492 9.59386L60.7611 9.66136L61.7736 1.14755L63.6384 0.843787L66.9883 8.76695Z" fill="#201B2F"/>
<path d="M72.6498 0.151855L74.2023 0.227796L73.7298 9.91447L72.1772 9.84697L72.6498 0.151855ZM77.5437 0.194045C78.0186 0.211902 78.4868 0.311818 78.9275 0.48937C79.3161 0.654638 79.6622 0.90559 79.9401 1.22346C80.2173 1.54564 80.4242 1.92212 80.5476 2.32883C80.6885 2.79319 80.7456 3.27889 80.7164 3.76326L80.4042 10.2435L78.8516 10.1676L79.1469 4.07547C79.2112 3.47703 79.0519 2.87595 78.6997 2.38789C78.5011 2.18005 78.261 2.0163 77.9949 1.90727C77.7289 1.79825 77.443 1.74639 77.1556 1.75505C76.6361 1.72668 76.1189 1.84355 75.6621 2.09257C75.196 2.33587 74.7963 2.68923 74.4977 3.12199C74.1773 3.60786 73.9671 4.15792 73.8817 4.73362V3.61138C73.9581 3.10599 74.1148 2.61605 74.3458 2.16007C74.5587 1.74663 74.8446 1.37504 75.1896 1.06315C75.5015 0.764938 75.8723 0.535038 76.278 0.388116C76.6816 0.234976 77.1129 0.168841 77.5437 0.194045V0.194045Z" fill="#201B2F"/>
<path d="M110.165 21.7613C103.239 16.9163 95.4434 13.4552 87.2051 11.5684" stroke="#201B2F" stroke-width="2" stroke-miterlimit="10" stroke-linecap="round"/>
<path d="M97.6514 131.631C105.401 128.259 112.431 123.429 118.358 117.405" stroke="#201B2F" stroke-width="2" stroke-miterlimit="10" stroke-linecap="round"/>
<path d="M10.1254 65.8154C9.24675 74.2188 9.99446 82.7129 12.3277 90.8336" stroke="#201B2F" stroke-width="2" stroke-miterlimit="10" stroke-linecap="round"/>
</g>
<line x1="75.2534" y1="51.6272" x2="75.2534" y2="95.1917" stroke="black" stroke-width="2" stroke-linecap="round"/>
<line x1="87.8547" y1="82.1505" x2="75.453" y2="96.4601" stroke="black" stroke-width="2" stroke-linecap="round"/>
<line x1="1" y1="-1" x2="19.9359" y2="-1" transform="matrix(0.654931 0.755689 0.755689 -0.654931 62.4404 80.7399)" stroke="black" stroke-width="2" stroke-linecap="round"/>
<defs>
<clipPath id="clip0_338_3486">
<rect width="150" height="147.764" fill="white"/>
</clipPath>
</defs>
</svg>
