<svg width="41" height="33" viewBox="0 0 41 33" fill="none" xmlns="http://www.w3.org/2000/svg">
<g clip-path="url(#clip0_351_832)">
<path d="M17.7096 16.2233C17.7096 16.2233 20.29 15.3231 19.4655 12.2459C18.6409 9.16852 16.0847 8.24381 13.3565 8.97484L4.37891 11.3804L8.98679 28.5772L17.9644 26.1717C17.9644 26.1717 23.4911 24.8758 22.0848 19.6275C22.0848 19.6275 21.1796 15.2935 17.7096 16.2233V16.2233ZM13.5293 12.2045L14.1755 12.0314C14.1755 12.0314 15.3958 11.7044 15.8752 13.4937C16.3546 15.2827 15.7064 15.7344 14.8924 15.9525L10.1818 17.2147L9.15354 13.377L13.5293 12.2045V12.2045ZM16.8917 23.1832L12.1235 24.4609L10.8921 19.8652L15.914 18.5196C15.914 18.5196 17.7265 18.0085 18.3656 20.3939C18.9046 22.4054 17.6017 22.9767 16.8917 23.1832V23.1832ZM27.3185 9.92325C20.6838 11.701 22.4602 18.307 22.4602 18.307C22.4602 18.307 23.7663 25.0026 30.8504 23.1044C30.8504 23.1044 36.8438 21.8588 35.5284 16.9497L32.4924 17.7632C32.4924 17.7632 33.089 19.5848 30.2217 20.3531C30.2217 20.3531 27.2396 21.3695 26.3836 18.1748L35.3234 15.7794C35.3233 15.7794 34.3013 8.05222 27.3185 9.92325ZM25.7351 15.8881C25.7351 15.8881 25.3956 13.1381 28.0609 12.424C30.7256 11.7099 31.4025 14.3695 31.4025 14.3695L25.7351 15.8881ZM30.3911 7.76599L23.2732 9.67323L22.7057 7.55556L29.8237 5.64832L30.3911 7.76599Z" stroke="#201B2F" stroke-width="1.4"/>
</g>
<defs>
<clipPath id="clip0_351_832">
<rect width="36" height="23" fill="white" transform="translate(0.273926 9.9707) rotate(-15)"/>
</clipPath>
</defs>
</svg>
