<svg width="31" height="32" viewBox="0 0 31 32" fill="none" xmlns="http://www.w3.org/2000/svg">
<g clip-path="url(#clip0_351_821)">
<mask id="path-1-inside-1_351_821" fill="white">
<path d="M11.4709 17.5743C10.8334 15.3633 12.1083 13.0537 14.3194 12.4162C16.5304 11.7787 18.8402 13.0546 19.4777 15.2656C20.1153 17.4766 18.8393 19.7864 16.6283 20.424C14.4173 21.0615 12.1085 19.7853 11.4709 17.5743ZM9.30648 18.1984C10.2886 21.6046 13.8459 23.5696 17.2521 22.5874C20.6584 21.6053 22.6234 18.0481 21.6412 14.6418C20.659 11.2355 17.1018 9.27057 13.6955 10.2527C10.2893 11.2349 8.32432 14.7921 9.30648 18.1984ZM18.5952 8.57514C18.8246 9.37068 19.6561 9.83079 20.4526 9.60112C21.2481 9.37174 21.708 8.5393 21.4786 7.74376C21.2492 6.94822 20.418 6.48909 19.6215 6.71875C18.825 6.94842 18.3658 7.77961 18.5952 8.57514ZM13.44 27.5957C12.2536 27.88 11.5609 27.8685 11.0904 27.8255C10.4667 27.769 9.99202 27.6242 9.44984 27.3255C8.90863 27.0266 8.5324 26.7021 8.15339 26.204C7.8665 25.8286 7.48799 25.2484 7.09698 24.0928C6.67372 22.8435 6.55242 22.4665 5.6276 19.2591C4.70279 16.0518 4.60602 15.6688 4.29793 14.3853C4.01364 13.1989 4.02639 12.5069 4.0681 12.0357C4.1247 11.412 4.26945 10.9373 4.56813 10.3951C4.86708 9.8539 5.19154 9.47767 5.69061 9.09839C6.06605 8.81149 6.64625 8.43298 7.80186 8.04198C9.05115 7.61871 9.42809 7.49741 12.6345 6.57288C15.8419 5.64806 16.2249 5.5513 17.5084 5.2432C18.6948 4.95891 19.3867 4.97166 19.858 5.01337C20.4814 5.069 20.9564 5.21472 21.4985 5.5134C22.0397 5.81236 22.4153 6.13807 22.7953 6.63588C23.0822 7.01132 23.4607 7.59153 23.8517 8.74713C24.2752 9.99739 24.3962 10.3734 25.3211 13.5807C26.2456 16.7872 26.3436 17.1708 26.6507 18.4546C26.935 19.641 26.9225 20.334 26.8806 20.8042C26.824 21.4279 26.6792 21.9026 26.3802 22.4438C26.0813 22.985 25.7556 23.3606 25.2578 23.7405C24.8823 24.0274 24.3021 24.4059 23.1465 24.7969C21.8972 25.2202 21.5203 25.3415 18.3129 26.2663C15.1065 27.1909 14.7228 27.2889 13.44 27.5957ZM7.07993 5.90995C5.81803 6.33685 5.00334 6.79138 4.32542 7.30841C3.6241 7.84269 3.07329 8.44706 2.59731 9.30727C2.12229 10.1672 1.90396 10.9552 1.82537 11.8343C1.74865 12.6834 1.79765 13.6151 2.10814 14.9105C2.41821 16.2082 2.52268 16.6215 3.46316 19.8832C4.40364 23.1449 4.53527 23.5504 4.9637 24.814C5.39061 26.0759 5.84514 26.8906 6.36216 27.5685C6.89644 28.2698 7.50012 28.8219 8.36103 29.2966C9.22096 29.7716 10.0087 29.989 10.8881 30.0686C11.7382 30.145 12.6688 30.0963 13.9643 29.7858C15.2627 29.4745 15.6753 29.3712 18.937 28.4308C22.1997 27.49 22.6042 27.3587 23.8678 26.9302C25.1297 26.5033 25.9443 26.0488 26.6223 25.5318C27.3233 24.9965 27.8744 24.3931 28.3504 23.5329C28.8254 22.673 29.0425 21.8842 29.1223 21.0059C29.199 20.1567 29.151 19.2248 28.8395 17.9296C28.5282 16.6313 28.424 16.2189 27.4836 12.9572C26.5431 9.6955 26.4114 9.29001 25.984 8.02617C25.5571 6.76427 25.1025 5.94959 24.5855 5.27166C24.0503 4.57062 23.4469 4.01954 22.5867 3.54355C21.7267 3.06853 20.9377 2.85048 20.0606 2.77133C19.2105 2.6949 18.2786 2.74293 16.9844 3.0541C15.687 3.36514 15.2734 3.46864 12.0117 4.40912C8.74898 5.34988 8.34445 5.48123 7.07993 5.90995Z"/>
</mask>
<path d="M11.0904 27.8255L11.1813 26.8297L11.1808 26.8296L11.0904 27.8255ZM9.44984 27.3255L8.96632 28.2009L8.96733 28.2014L9.44984 27.3255ZM8.15339 26.204L8.94921 25.5985L8.94796 25.5968L8.15339 26.204ZM7.09698 24.0928L8.04423 23.7723L8.0441 23.7719L7.09698 24.0928ZM4.29793 14.3853L3.32546 14.6183L3.32555 14.6187L4.29793 14.3853ZM4.0681 12.0357L3.07219 11.9453L3.07199 11.9475L4.0681 12.0357ZM4.56813 10.3951L3.6928 9.91159L3.69224 9.9126L4.56813 10.3951ZM5.69061 9.09839L6.29569 9.89456L6.29779 9.89296L5.69061 9.09839ZM7.80186 8.04198L8.12236 8.98923L8.12275 8.98909L7.80186 8.04198ZM17.5084 5.2432L17.2754 4.27073L17.275 4.27082L17.5084 5.2432ZM19.858 5.01337L19.9469 4.01733L19.9462 4.01727L19.858 5.01337ZM21.4985 5.5134L21.9821 4.63807L21.981 4.63751L21.4985 5.5134ZM22.7953 6.63588L22.0004 7.24262L22.0007 7.24306L22.7953 6.63588ZM23.8517 8.74713L22.9044 9.06764L22.9045 9.06799L23.8517 8.74713ZM26.6507 18.4546L25.6782 18.6873L25.6783 18.6877L26.6507 18.4546ZM26.8806 20.8042L27.8765 20.8946L27.8766 20.8932L26.8806 20.8042ZM25.2578 23.7405L24.651 22.9456L24.6506 22.946L25.2578 23.7405ZM23.1465 24.7969L22.826 23.8497L22.8256 23.8498L23.1465 24.7969ZM4.32542 7.30841L4.93142 8.10387L4.93184 8.10355L4.32542 7.30841ZM2.59731 9.30727L1.72232 8.82312L1.72197 8.82375L2.59731 9.30727ZM1.82537 11.8343L2.82131 11.9243L2.8214 11.9234L1.82537 11.8343ZM2.10814 14.9105L3.08076 14.6781L3.0806 14.6775L2.10814 14.9105ZM4.9637 24.814L5.91096 24.4935L5.91074 24.4929L4.9637 24.814ZM6.36216 27.5685L7.15763 26.9625L7.1573 26.9621L6.36216 27.5685ZM8.36103 29.2966L8.84455 28.4213L8.84391 28.4209L8.36103 29.2966ZM10.8881 30.0686L10.798 31.0645L10.7985 31.0645L10.8881 30.0686ZM13.9643 29.7858L14.1973 30.7583L14.1974 30.7582L13.9643 29.7858ZM23.8678 26.9302L23.5473 25.983L23.5466 25.9832L23.8678 26.9302ZM26.6223 25.5318L27.2287 26.3269L27.2291 26.3266L26.6223 25.5318ZM28.3504 23.5329L29.2254 24.0171L29.2257 24.0164L28.3504 23.5329ZM29.1223 21.0059L30.1182 21.0964L30.1183 21.0958L29.1223 21.0059ZM28.8395 17.9296L27.8671 18.1628L27.8673 18.1635L28.8395 17.9296ZM25.984 8.02617L26.9313 7.70577L26.9312 7.70571L25.984 8.02617ZM24.5855 5.27166L25.3807 4.66524L25.3803 4.66481L24.5855 5.27166ZM22.5867 3.54355L23.0708 2.66857L23.0702 2.66822L22.5867 3.54355ZM20.0606 2.77133L20.1504 1.77538L20.1501 1.77535L20.0606 2.77133ZM16.9844 3.0541L17.2175 4.02655L17.2181 4.02639L16.9844 3.0541ZM12.4318 17.2972C11.9472 15.6166 12.9164 13.8615 14.5964 13.3771L14.0423 11.4553C11.3003 12.246 9.71963 15.11 10.5101 17.8513L12.4318 17.2972ZM14.5964 13.3771C16.2768 12.8925 18.0324 13.8623 18.5169 15.5427L20.4386 14.9886C19.648 12.2469 16.784 10.6648 14.0423 11.4553L14.5964 13.3771ZM18.5169 15.5427C19.0014 17.223 18.0316 18.9786 16.3513 19.4631L16.9054 21.3848C19.6471 20.5943 21.2291 17.7302 20.4386 14.9886L18.5169 15.5427ZM16.3513 19.4631C14.6712 19.9475 12.9164 18.9779 12.4318 17.2972L10.5101 17.8513C11.3005 20.5927 14.1634 22.1754 16.9054 21.3848L16.3513 19.4631ZM8.34563 18.4754C9.4808 22.4124 13.5923 24.6835 17.5292 23.5483L16.9751 21.6266C14.0995 22.4557 11.0965 20.7969 10.2673 17.9213L8.34563 18.4754ZM17.5292 23.5483C21.4661 22.4131 23.7372 18.3017 22.6021 14.3647L20.6803 14.9188C21.5095 17.7944 19.8507 20.7974 16.9751 21.6266L17.5292 23.5483ZM22.6021 14.3647C21.4669 10.4278 17.3554 8.1567 13.4185 9.29187L13.9726 11.2136C16.8482 10.3844 19.8512 12.0432 20.6803 14.9188L22.6021 14.3647ZM13.4185 9.29187C9.48157 10.427 7.21045 14.5385 8.34563 18.4754L10.2673 17.9213C9.43819 15.0457 11.097 12.0427 13.9726 11.2136L13.4185 9.29187ZM17.6344 8.8522C18.0166 10.178 19.402 10.9448 20.7296 10.562L20.1755 8.64027C19.9101 8.7168 19.6326 8.56339 19.5561 8.29809L17.6344 8.8522ZM20.7296 10.562C22.0558 10.1796 22.8218 8.79291 22.4394 7.46671L20.5177 8.02082C20.5941 8.28569 20.4404 8.5639 20.1755 8.64027L20.7296 10.562ZM22.4394 7.46671C22.0569 6.14009 20.6712 5.37534 19.3444 5.7579L19.8985 7.67961C20.1648 7.60283 20.4415 7.75636 20.5177 8.02082L22.4394 7.46671ZM19.3444 5.7579C18.0177 6.14045 17.2519 7.52557 17.6344 8.8522L19.5561 8.29809C19.4798 8.03364 19.6323 7.75638 19.8985 7.67961L19.3444 5.7579ZM13.207 26.6233C12.1271 26.882 11.5439 26.8628 11.1813 26.8297L10.9995 28.8214C11.578 28.8742 12.3801 28.878 13.673 28.5682L13.207 26.6233ZM11.1808 26.8296C10.6931 26.7854 10.3522 26.6809 9.93235 26.4496L8.96733 28.2014C9.63187 28.5675 10.2403 28.7525 11 28.8215L11.1808 26.8296ZM9.93336 26.4502C9.51426 26.2187 9.24427 25.9862 8.94921 25.5985L7.35758 26.8095C7.82053 27.418 8.303 27.8344 8.96632 28.2009L9.93336 26.4502ZM8.94796 25.5968C8.72689 25.3075 8.40012 24.8241 8.04423 23.7723L6.14974 24.4133C6.57586 25.6727 7.00611 26.3496 7.35883 26.8112L8.94796 25.5968ZM8.0441 23.7719C7.62841 22.5449 7.51221 22.1858 6.58846 18.9821L4.66675 19.5362C5.59263 22.7473 5.71903 23.142 6.14987 24.4137L8.0441 23.7719ZM6.58846 18.9821C5.66491 15.7791 5.57309 15.4133 5.2703 14.1518L3.32555 14.6187C3.63896 15.9243 3.74066 16.3244 4.66675 19.5362L6.58846 18.9821ZM5.2704 14.1522C5.01198 13.0738 5.03176 12.4904 5.0642 12.1238L3.07199 11.9475C3.02102 12.5234 3.0153 13.3239 3.32546 14.6183L5.2704 14.1522ZM5.06401 12.126C5.10826 11.6384 5.21275 11.2974 5.44402 10.8776L3.69224 9.9126C3.32616 10.5771 3.14114 11.1855 3.07219 11.9453L5.06401 12.126ZM5.44346 10.8786C5.6749 10.4597 5.90719 10.1898 6.29569 9.89455L5.08553 8.30222C4.4759 8.76554 4.05927 9.24815 3.6928 9.91159L5.44346 10.8786ZM6.29779 9.89296C6.58708 9.67189 7.07054 9.34511 8.12236 8.98923L7.48136 7.09473C6.22196 7.52085 5.54501 7.9511 5.08343 8.30382L6.29779 9.89296ZM8.12275 8.98909C9.34969 8.5734 9.70885 8.4572 12.9116 7.53373L12.3574 5.61202C9.14734 6.53762 8.7526 6.66402 7.48097 7.09486L8.12275 8.98909ZM12.9116 7.53373C16.1145 6.61019 16.4804 6.51836 17.7418 6.21558L17.275 4.27082C15.9693 4.58423 15.5692 4.68594 12.3574 5.61202L12.9116 7.53373ZM17.7414 6.21567C18.8198 5.95725 19.4032 5.97703 19.7698 6.00948L19.9462 4.01727C19.3703 3.96629 18.5697 3.96058 17.2754 4.27073L17.7414 6.21567ZM19.7691 6.00942C20.2544 6.05272 20.5953 6.15752 21.016 6.38929L21.981 4.63751C21.3174 4.27193 20.7084 4.08529 19.9469 4.01733L19.7691 6.00942ZM21.015 6.38873C21.4326 6.61941 21.7028 6.85281 22.0004 7.24262L23.5902 6.02915C23.1277 5.42332 22.6469 5.0053 21.9821 4.63807L21.015 6.38873ZM22.0007 7.24306C22.2218 7.53236 22.5485 8.01581 22.9044 9.06764L24.7989 8.42663C24.3728 7.16724 23.9425 6.49029 23.5898 6.02871L22.0007 7.24306ZM22.9045 9.06799C23.3205 10.2959 23.4365 10.6541 24.3602 13.8578L26.2819 13.3037C25.356 10.0926 25.2299 9.69885 24.7988 8.42628L22.9045 9.06799ZM24.3602 13.8578C25.2837 17.0605 25.3765 17.4264 25.6782 18.6873L27.6233 18.222C27.3107 16.9152 27.2075 16.5138 26.2819 13.3037L24.3602 13.8578ZM25.6783 18.6877C25.9368 19.7664 25.9171 20.3505 25.8845 20.7153L27.8766 20.8932C27.928 20.3174 27.9333 19.5156 27.6232 18.2216L25.6783 18.6877ZM25.8846 20.7138C25.8404 21.2015 25.7359 21.5421 25.5049 21.9603L27.2556 22.9273C27.6225 22.2631 27.8075 21.6543 27.8765 20.8946L25.8846 20.7138ZM25.5049 21.9603C25.2742 22.3779 25.0408 22.6481 24.651 22.9456L25.8645 24.5354C26.4703 24.073 26.8883 23.5921 27.2556 22.9273L25.5049 21.9603ZM24.6506 22.946C24.3613 23.167 23.8778 23.4938 22.826 23.8497L23.467 25.7442C24.7264 25.3181 25.4034 24.8878 25.8649 24.5351L24.6506 22.946ZM22.8256 23.8498C21.5987 24.2655 21.2395 24.3817 18.0359 25.3055L18.59 27.2272C21.801 26.3013 22.1958 26.1749 23.4674 25.7441L22.8256 23.8498ZM18.0359 25.3055C14.8331 26.2289 14.4673 26.3218 13.2074 26.6232L13.6726 28.5683C14.9784 28.256 15.3798 28.1528 18.59 27.2272L18.0359 25.3055ZM6.75946 4.96269C5.40784 5.41995 4.49378 5.92237 3.719 6.51327L4.93184 8.10355C5.5129 7.6604 6.22822 7.25376 7.40039 6.85721L6.75946 4.96269ZM3.71942 6.51294C2.91496 7.12579 2.26963 7.834 1.72232 8.82312L3.47229 9.79143C3.87695 9.06011 4.33324 8.55958 4.93142 8.10387L3.71942 6.51294ZM1.72197 8.82375C1.17544 9.81315 0.919489 10.7369 0.829343 11.7453L2.8214 11.9234C2.88843 11.1736 3.06914 10.5213 3.47264 9.79079L1.72197 8.82375ZM0.829427 11.7443C0.741748 12.7148 0.803115 13.756 1.13568 15.1436L3.0806 14.6775C2.79219 13.4741 2.75556 12.6521 2.82131 11.9243L0.829427 11.7443ZM1.13552 15.1429C1.45101 16.4633 1.56053 16.8941 2.5023 20.1603L4.42401 19.6062C3.48483 16.349 3.38542 15.9531 3.08076 14.6781L1.13552 15.1429ZM2.5023 20.1603C3.44408 23.4265 3.58075 23.8495 4.01666 25.1351L5.91074 24.4929C5.48979 23.2514 5.3632 22.8634 4.42401 19.6062L2.5023 20.1603ZM4.01644 25.1345C4.4737 26.4861 4.97612 27.4001 5.56702 28.1749L7.1573 26.9621C6.71415 26.381 6.30751 25.6657 5.91096 24.4935L4.01644 25.1345ZM5.5667 28.1745C6.17888 28.9781 6.8865 29.6255 7.87814 30.1723L8.84391 28.4209C8.11374 28.0183 7.614 27.5616 7.15763 26.9625L5.5667 28.1745ZM7.87751 30.172C8.86749 30.7188 9.79077 30.9734 10.798 31.0645L10.9782 29.0726C10.2267 29.0046 9.57444 28.8245 8.84455 28.4213L7.87751 30.172ZM10.7985 31.0645C11.7695 31.1518 12.8095 31.0909 14.1973 30.7583L13.7312 28.8133C12.5281 29.1017 11.7069 29.1381 10.9776 29.0726L10.7985 31.0645ZM14.1974 30.7582C15.5177 30.4417 15.9472 30.3336 19.2141 29.3916L18.6599 27.4699C15.4034 28.4089 15.0076 28.5073 13.7311 28.8134L14.1974 30.7582ZM19.2141 29.3916C22.4812 28.4496 22.9032 28.3132 24.1889 27.8773L23.5466 25.9832C22.3052 26.4041 21.9181 26.5305 18.6599 27.4699L19.2141 29.3916ZM24.1882 27.8775C25.5398 27.4202 26.4539 26.9178 27.2287 26.3269L26.0158 24.7366C25.4348 25.1798 24.7195 25.5864 23.5473 25.983L24.1882 27.8775ZM27.2291 26.3266C28.0321 25.7135 28.6777 25.0068 29.2254 24.0171L27.4754 23.0487C27.0711 23.7795 26.6146 24.2795 26.0154 24.7369L27.2291 26.3266ZM29.2257 24.0164C29.7727 23.0261 30.0268 22.1019 30.1182 21.0964L28.1264 20.9153C28.0581 21.6665 27.8781 22.3198 27.475 23.0494L29.2257 24.0164ZM30.1183 21.0958C30.2059 20.1259 30.1457 19.0842 29.8118 17.6958L27.8673 18.1635C28.1563 19.3654 28.1922 20.1875 28.1264 20.9159L30.1183 21.0958ZM29.812 17.6965C29.4953 16.3759 29.3862 15.9464 28.4444 12.6802L26.5227 13.2343C27.4619 16.4914 27.5611 16.8866 27.8671 18.1628L29.812 17.6965ZM28.4444 12.6802C27.5026 9.4139 27.366 8.99125 26.9313 7.70577L25.0367 8.34657C25.4568 9.58877 25.5835 9.9771 26.5227 13.2343L28.4444 12.6802ZM26.9312 7.70571C26.474 6.35408 25.9716 5.44003 25.3807 4.66524L23.7904 5.87809C24.2335 6.45915 24.6402 7.17446 25.0367 8.34663L26.9312 7.70571ZM25.3803 4.66481C24.7673 3.86188 24.0605 3.2162 23.0708 2.66857L22.1025 4.41853C22.8332 4.82287 23.3333 5.27937 23.7907 5.87851L25.3803 4.66481ZM23.0702 2.66822C22.0805 2.12156 21.156 1.86612 20.1504 1.77538L19.9707 3.76729C20.7194 3.83485 21.3729 4.01551 22.1031 4.41888L23.0702 2.66822ZM20.1501 1.77535C19.1797 1.68809 18.1382 1.74819 16.7506 2.08181L17.2181 4.02639C18.419 3.73766 19.2413 3.7017 19.971 3.76732L20.1501 1.77535ZM16.7512 2.08166C15.432 2.39795 15.0015 2.5063 11.7346 3.44827L12.2887 5.36998C15.5453 4.43098 15.942 4.33234 17.2175 4.02655L16.7512 2.08166ZM11.7346 3.44827C8.46742 4.39032 8.04541 4.52671 6.75885 4.96289L7.40101 6.857C8.64349 6.43576 9.03053 6.30944 12.2887 5.36998L11.7346 3.44827Z" fill="#201B2F" mask="url(#path-1-inside-1_351_821)"/>
</g>
<defs>
<clipPath id="clip0_351_821">
<rect width="25" height="25" fill="white" transform="translate(0 7.87256) rotate(-16.0844)"/>
</clipPath>
</defs>
</svg>
