<svg width="33" height="32" viewBox="0 0 33 32" fill="none" xmlns="http://www.w3.org/2000/svg">
<g clip-path="url(#clip0_351_825)">
<path d="M3.54517 11.6934C3.35388 11.018 3.43247 10.3938 3.78091 9.82094C4.12935 9.24804 4.6818 8.85448 5.43823 8.64025C6.18117 8.42984 6.84346 8.47572 7.42515 8.77791C8.02417 9.08977 8.42505 9.60364 8.62781 10.3196C8.81144 10.9679 8.73483 11.5733 8.39798 12.1356C8.05146 12.7153 7.49322 13.1141 6.72327 13.3322L6.70301 13.3379C5.96007 13.5483 5.29587 13.4957 4.71035 13.18C4.12483 12.8643 3.73644 12.3688 3.54517 11.6934ZM8.82964 29.3478L4.99641 15.813L9.49451 14.539L13.3277 28.0739L8.82964 29.3478ZM15.8199 27.368L20.318 26.0941L18.1776 18.5365C18.0437 18.0637 17.9945 17.6837 18.0299 17.3965C18.0889 16.8836 18.2659 16.414 18.561 15.9875C18.8561 15.5611 19.294 15.2656 19.8749 15.1011C21.3878 14.6726 22.433 15.4782 23.0107 17.5179L25.0593 24.7514L29.5574 23.4774L27.3596 15.7172C26.7934 13.718 25.8912 12.3357 24.653 11.5701C23.4148 10.8046 22.019 10.6418 20.4656 11.0817C18.7231 11.5752 17.5779 12.7094 17.03 14.4842L17.0414 14.5247L17.0212 14.5304L17.03 14.4842L16.4848 12.5593L11.9867 13.8332C12.1361 14.2578 12.5303 15.598 13.1692 17.8538C13.808 20.1096 14.6916 23.281 15.8199 27.368Z" stroke="#201B2F" stroke-width="1.5"/>
</g>
<defs>
<clipPath id="clip0_351_825">
<rect width="26" height="24.8456" fill="white" transform="translate(0.328125 8.01001) rotate(-15.8128)"/>
</clipPath>
</defs>
</svg>
