<svg width="27" height="28" viewBox="0 0 27 28" fill="none" xmlns="http://www.w3.org/2000/svg">
<path d="M12.0808 25.4504C11.5473 25.5934 11.2307 26.1417 11.3737 26.6752C11.5166 27.2087 12.0649 27.5252 12.5984 27.3823L12.0808 25.4504ZM22.48 7.93124L21.7046 7.29978L21.3634 7.71876L21.5269 8.23376L22.48 7.93124ZM24.2651 4.70789L25.2118 5.03L26.325 1.75834L23.6367 3.93001L24.2651 4.70789ZM21.6286 6.24898L20.9104 5.55312L22 7.17744L21.6286 6.24898ZM23.0743 2.92959L24.0731 2.97828L24.2014 0.347161L22.3594 2.23035L23.0743 2.92959ZM20.2499 4.97311L19.7236 5.82338L20.194 6.11456L20.6906 5.87079L20.2499 4.97311ZM13.0159 11.7456L13.226 12.7233L14.5254 12.4442L13.8971 11.2729L13.0159 11.7456ZM1.41867 9.31454L2.00316 8.50313L0.833081 7.66028L0.453869 9.05157L1.41867 9.31454ZM1.41393 11.9802L2.37985 11.7214L2.37962 11.7205L1.41393 11.9802ZM4.72181 15.5064L4.95108 16.4798L8.35358 15.6784L5.04202 14.5591L4.72181 15.5064ZM2.31224 15.4891L2.55564 14.5191L0.971101 14.1215L1.33775 15.7135L2.31224 15.4891ZM7.60226 19.3357L8.10543 20.1999L7.5378 18.3378L7.60226 19.3357ZM6.34249 19.8598L6.08423 18.8937L6.08367 18.8939L6.34249 19.8598ZM5.38748 20.0201L5.31508 19.0228L3.63387 19.1448L4.54686 20.5618L5.38748 20.0201ZM10.9361 22.2152L11.7352 22.8165L13.4285 20.566L10.6952 21.2447L10.9361 22.2152ZM5.35 25.9811L5.09118 25.0152L5.09036 25.0154L5.35 25.9811ZM4.14985 26.2293L4.00525 25.2398L3.84725 27.1824L4.14985 26.2293ZM12.5986 27.3819C13.132 27.2389 13.4486 26.6906 13.3057 26.1571C13.1627 25.6237 12.6144 25.3071 12.0809 25.45L12.5986 27.3819ZM12.5984 27.3823C22.3543 24.7682 25.4942 15.2606 23.6313 8.30794L21.6994 8.82558C23.3389 14.9443 20.5507 23.1809 12.0808 25.4504L12.5984 27.3823ZM23.6313 8.30794C23.5704 8.0808 23.5047 7.85424 23.4332 7.62872L21.5269 8.23376C21.5883 8.42742 21.6456 8.62464 21.6994 8.82558L23.6313 8.30794ZM23.2554 8.5627C24.1124 7.51037 24.7749 6.31412 25.2118 5.03L23.3184 4.38579C22.9581 5.44479 22.4117 6.43156 21.7046 7.29978L23.2554 8.5627ZM23.6367 3.93001C22.9324 4.499 22.1348 4.96944 21.2572 5.32052L22 7.17744C23.0627 6.75235 24.0335 6.18051 24.8935 5.48578L23.6367 3.93001ZM22.3468 6.94484C23.3708 5.88796 23.9999 4.48032 24.0731 2.97828L22.0755 2.8809C22.0264 3.88671 21.6041 4.83724 20.9104 5.55312L22.3468 6.94484ZM22.3594 2.23035C21.6207 2.98561 20.7583 3.60961 19.8093 4.07542L20.6906 5.87079C21.8435 5.30486 22.8914 4.54667 23.7892 3.62883L22.3594 2.23035ZM20.7763 4.12284C19.3894 3.26433 17.6582 2.95745 15.956 3.41355L16.4736 5.3454C17.6219 5.03773 18.7871 5.24364 19.7236 5.82338L20.7763 4.12284ZM15.956 3.41355C12.6882 4.28916 10.7443 7.64572 11.6193 10.9111L13.5511 10.3935C12.9629 8.19836 14.2694 5.93602 16.4736 5.3454L15.956 3.41355ZM11.6193 10.9111C11.7427 11.3717 11.9154 11.8095 12.1347 12.2183L13.8971 11.2729C13.7524 11.0031 13.6357 10.7092 13.5511 10.3935L11.6193 10.9111ZM12.8059 10.7679C8.91941 11.6029 5.02784 10.6819 2.00316 8.50313L0.834189 10.1259C4.30049 12.6228 8.76618 13.6814 13.226 12.7233L12.8059 10.7679ZM0.453869 9.05157C0.169399 10.0953 0.167401 11.1955 0.448227 12.2399L2.37962 11.7205C2.19092 11.0188 2.1922 10.2793 2.38348 9.57751L0.453869 9.05157ZM0.447999 12.239C0.997783 14.2908 2.52997 15.8212 4.40161 16.4538L5.04202 14.5591C3.7785 14.132 2.74965 13.1015 2.37985 11.7214L0.447999 12.239ZM4.49255 14.5331C3.85483 14.6833 3.19056 14.6785 2.55564 14.5191L2.06884 16.459C3.01395 16.6962 4.00239 16.7033 4.95108 16.4798L4.49255 14.5331ZM1.33775 15.7135C1.34723 15.7546 1.35735 15.792 1.36251 15.8113L3.29436 15.2936C3.29117 15.2817 3.2895 15.2754 3.28809 15.27C3.28686 15.2652 3.28658 15.264 3.28673 15.2646L1.33775 15.7135ZM1.36251 15.8113C2.13032 18.6767 4.81275 20.518 7.66672 20.3336L7.5378 18.3378C5.61496 18.462 3.81017 17.2186 3.29436 15.2936L1.36251 15.8113ZM7.0991 18.4715C6.7811 18.6567 6.4398 18.7987 6.08423 18.8937L6.60075 20.8259C7.12789 20.6849 7.63392 20.4744 8.10543 20.1999L7.0991 18.4715ZM6.08367 18.8939C5.82858 18.9622 5.57217 19.0041 5.31508 19.0228L5.45987 21.0175C5.83748 20.9901 6.21902 20.9282 6.60131 20.8257L6.08367 18.8939ZM4.54686 20.5618C5.93016 22.7087 8.57264 23.8324 11.1771 23.1857L10.6952 21.2447C8.94125 21.6802 7.15941 20.9239 6.22809 19.4785L4.54686 20.5618ZM10.1371 21.614C8.92658 23.2227 7.18979 24.4529 5.09118 25.0152L5.60882 26.947C8.15342 26.2652 10.2653 24.77 11.7352 22.8165L10.1371 21.614ZM5.09036 25.0154C4.73336 25.1114 4.37103 25.1863 4.00525 25.2398L4.29445 27.2187C4.73779 27.154 5.17695 27.0632 5.60964 26.9468L5.09036 25.0154ZM3.84725 27.1824C6.59109 28.0535 9.60888 28.183 12.5986 27.3819L12.0809 25.45C9.47392 26.1486 6.84583 26.036 4.45245 25.2761L3.84725 27.1824Z" fill="#201B2F"/>
</svg>
